<svg width="600" height="400" viewBox="0 0 600 400" fill="none" xmlns="http://www.w3.org/2000/svg">
  <!-- Background elements -->
  <rect width="600" height="400" fill="#1D4ED8" opacity="0.1"/>
  <circle cx="100" cy="100" r="60" fill="#1D4ED8" opacity="0.2"/>
  <circle cx="500" cy="300" r="80" fill="#1D4ED8" opacity="0.2"/>
  
  <!-- Police station building -->
  <rect x="200" y="120" width="200" height="180" fill="#1E40AF"/>
  <rect x="180" y="100" width="240" height="20" fill="#1E3A8A"/>
  <rect x="240" y="240" width="120" height="60" fill="#2563EB"/>
  <rect x="290" y="240" width="20" height="60" fill="#1E40AF"/>
  
  <!-- Windows -->
  <rect x="230" y="140" width="30" height="30" fill="#BFDBFE"/>
  <rect x="280" y="140" width="30" height="30" fill="#BFDBFE"/>
  <rect x="340" y="140" width="30" height="30" fill="#BFDBFE"/>
  <rect x="230" y="190" width="30" height="30" fill="#BFDBFE"/>
  <rect x="280" y="190" width="30" height="30" fill="#BFDBFE"/>
  <rect x="340" y="190" width="30" height="30" fill="#BFDBFE"/>
  
  <!-- Sign -->
  <rect x="250" y="80" width="100" height="40" fill="#2563EB"/>
  <rect x="260" y="90" width="80" height="20" fill="#FFFFFF"/>
  
  <!-- Ground -->
  <rect x="0" y="300" width="600" height="100" fill="#1E3A8A"/>
  
  <!-- Police car -->
  <rect x="50" y="260" width="100" height="40" rx="10" fill="#1E40AF"/>
  <rect x="70" y="240" width="60" height="30" rx="5" fill="#2563EB"/>
  <circle cx="80" cy="300" r="15" fill="#1E3A8A"/>
  <circle cx="80" cy="300" r="8" fill="#FFFFFF"/>
  <circle cx="120" cy="300" r="15" fill="#1E3A8A"/>
  <circle cx="120" cy="300" r="8" fill="#FFFFFF"/>
  <rect x="130" y="270" width="10" height="5" fill="#EF4444"/>
  <rect x="140" y="270" width="10" height="5" fill="#3B82F6"/>
  
  <!-- Shield icon -->
  <path d="M450 200 L500 200 L500 250 L475 270 L450 250 Z" fill="#2563EB"/>
  <path d="M460 210 L490 210 L490 245 L475 260 L460 245 Z" fill="#1E40AF"/>
  <path d="M475 220 L485 230 L475 240 L465 230 Z" fill="#FFFFFF"/>
  
  <!-- People -->
  <circle cx="400" cy="280" r="20" fill="#1E3A8A"/>
  <rect x="390" y="300" width="20" height="30" fill="#1E3A8A"/>
  <rect x="380" y="310" width="40" height="20" fill="#1E3A8A"/>
  
  <circle cx="350" cy="290" r="15" fill="#1E3A8A"/>
  <rect x="342" y="305" width="16" height="25" fill="#1E3A8A"/>
  <rect x="335" y="315" width="30" height="15" fill="#1E3A8A"/>
  
  <circle cx="550" cy="280" r="20" fill="#1E3A8A"/>
  <rect x="540" y="300" width="20" height="30" fill="#1E3A8A"/>
  <rect x="530" y="310" width="40" height="20" fill="#1E3A8A"/>
</svg>
