<svg width="600" height="400" viewBox="0 0 600 400" fill="none" xmlns="http://www.w3.org/2000/svg">
  <!-- Background elements -->
  <rect width="600" height="400" fill="#1E40AF" opacity="0.1"/>
  <circle cx="500" cy="100" r="50" fill="#1E40AF" opacity="0.2"/>
  <circle cx="100" cy="300" r="70" fill="#1E40AF" opacity="0.2"/>
  
  <!-- City skyline -->
  <rect x="50" y="250" width="40" height="100" fill="#1E3A8A"/>
  <rect x="100" y="200" width="30" height="150" fill="#1E3A8A"/>
  <rect x="140" y="230" width="50" height="120" fill="#1E3A8A"/>
  <rect x="200" y="180" width="40" height="170" fill="#1E3A8A"/>
  <rect x="250" y="220" width="60" height="130" fill="#1E3A8A"/>
  <rect x="320" y="190" width="30" height="160" fill="#1E3A8A"/>
  <rect x="360" y="240" width="50" height="110" fill="#1E3A8A"/>
  <rect x="420" y="210" width="40" height="140" fill="#1E3A8A"/>
  <rect x="470" y="170" width="30" height="180" fill="#1E3A8A"/>
  <rect x="510" y="230" width="40" height="120" fill="#1E3A8A"/>
  
  <!-- Ground -->
  <rect x="0" y="350" width="600" height="50" fill="#1E3A8A"/>
  
  <!-- Police badge -->
  <circle cx="300" cy="150" r="70" fill="#2563EB"/>
  <circle cx="300" cy="150" r="60" fill="#1E40AF"/>
  <path d="M300 100 L320 140 L365 140 L330 165 L345 210 L300 180 L255 210 L270 165 L235 140 L280 140 Z" fill="#FFFFFF"/>
  
  <!-- People silhouettes -->
  <circle cx="150" cy="300" r="20" fill="#1E3A8A"/>
  <rect x="140" y="320" width="20" height="30" fill="#1E3A8A"/>
  <rect x="130" y="330" width="40" height="20" fill="#1E3A8A"/>
  
  <circle cx="450" cy="300" r="20" fill="#1E3A8A"/>
  <rect x="440" y="320" width="20" height="30" fill="#1E3A8A"/>
  <rect x="430" y="330" width="40" height="20" fill="#1E3A8A"/>
  
  <circle cx="250" cy="320" r="15" fill="#1E3A8A"/>
  <rect x="242" y="335" width="16" height="25" fill="#1E3A8A"/>
  <rect x="235" y="345" width="30" height="15" fill="#1E3A8A"/>
  
  <circle cx="350" cy="320" r="15" fill="#1E3A8A"/>
  <rect x="342" y="335" width="16" height="25" fill="#1E3A8A"/>
  <rect x="335" y="345" width="30" height="15" fill="#1E3A8A"/>
</svg>
